<?xml version="1.0" encoding="UTF-8" standalone="no"?>
<!-- Created with Inkscape (http://www.inkscape.org/) -->

<svg
   width="39.6875mm"
   height="43.049038mm"
   viewBox="0 0 39.6875 43.049038"
   version="1.1"
   id="svg5"
   xml:space="preserve"
   sodipodi:docname="contact.svg"
   inkscape:version="1.2.1 (9c6d41e410, 2022-07-14)"
   xmlns:inkscape="http://www.inkscape.org/namespaces/inkscape"
   xmlns:sodipodi="http://sodipodi.sourceforge.net/DTD/sodipodi-0.dtd"
   xmlns="http://www.w3.org/2000/svg"
   xmlns:svg="http://www.w3.org/2000/svg"><sodipodi:namedview
     id="namedview7"
     pagecolor="#ffffff"
     bordercolor="#000000"
     borderopacity="0.25"
     inkscape:showpageshadow="2"
     inkscape:pageopacity="0.0"
     inkscape:pagecheckerboard="0"
     inkscape:deskcolor="#d1d1d1"
     inkscape:document-units="mm"
     showgrid="false"
     inkscape:zoom="0.74564394"
     inkscape:cx="-414.40691"
     inkscape:cy="409.04242"
     inkscape:window-width="1920"
     inkscape:window-height="1017"
     inkscape:window-x="1912"
     inkscape:window-y="-8"
     inkscape:window-maximized="1"
     inkscape:current-layer="layer1" /><defs
     id="defs2" /><g
     inkscape:label="Capa 1"
     inkscape:groupmode="layer"
     id="layer1"
     transform="translate(-132.40524,-5.3355093)"><path
       style="fill:#000000;stroke-width:0.0961196"
       d="m 134.81986,48.203025 c -1.64359,-0.64252 -2.63164,-2.4274 -2.37397,-4.2885 0.21619,-1.56147 1.42831,-4.10462 2.88368,-6.05022 1.42302,-1.90237 4.45793,-4.5657 5.20267,-4.5657 0.55401,0 0.95517,0.74165 0.62575,1.15682 -0.0644,0.0812 -0.50537,0.42641 -0.97993,0.7672 -1.59589,1.14607 -3.39796,3.04174 -4.40884,4.63783 -0.8472,1.33767 -1.71853,3.40258 -1.84817,4.37993 -0.14666,1.10557 0.55824,2.28038 1.53939,2.56561 0.43455,0.12632 2.55833,0.14117 17.02392,0.11896 l 16.52744,-0.0254 0.43254,-0.25493 c 0.73579,-0.43367 1.15344,-1.20201 1.15344,-2.12194 0,-1.01441 -1.011,-3.40188 -2.13574,-5.04354 -1.1607,-1.69415 -2.24656,-2.82304 -4.00788,-4.16669 -0.77583,-0.59186 -0.82681,-0.65288 -0.8541,-1.02238 -0.0244,-0.3304 0.0121,-0.4253 0.22923,-0.59611 0.37172,-0.29239 0.60932,-0.25441 1.24997,0.19979 3.12329,2.21434 5.51231,5.36842 6.68404,8.82458 0.40427,1.19242 0.43836,2.41853 0.0918,3.30112 -0.4096,1.04315 -1.42447,2.00142 -2.40944,2.27506 -0.21404,0.0595 -6.53396,0.0924 -17.25486,0.0899 -16.21269,-0.004 -16.93601,-0.0113 -17.37094,-0.18138 z m 14.67959,-8.25934 c -0.1586,-0.101 -1.89958,-1.80211 -3.86883,-3.78024 -3.28035,-3.29513 -3.58047,-3.62357 -3.58047,-3.91833 0,-0.28041 0.13565,-0.4592 1.05679,-1.39283 l 1.0568,-1.07113 -0.44037,-0.428 c -0.6932,-0.67375 -1.6338,-1.97816 -2.15308,-2.98585 -1.0221,-1.98346 -1.39509,-3.68385 -1.31543,-5.99684 0.10634,-3.0878 1.18167,-5.64088 3.30249,-7.84089 1.70998,-1.77383 3.52802,-2.8163402 5.98435,-3.4315902 0.89551,-0.22429 1.20753,-0.25455 2.6491,-0.25686 1.80577,-0.003 2.61908,0.1249 4.0851,0.64192 2.19109,0.7727202 4.26748,2.3019102 5.64727,4.1590202 0.63345,0.85258 1.46564,2.46441 1.78656,3.46032 0.95089,2.95083 0.71674,6.34574 -0.62131,9.0085 -0.152,0.30248 -0.27636,0.57282 -0.27636,0.60076 0,0.0279 0.28543,0.0508 0.63428,0.0508 1.17166,0 1.65362,-0.47434 1.54558,-1.52113 -0.0715,-0.69245 0.10677,-1.14307 0.48114,-1.21639 1.19531,-0.23412 1.55518,-0.43577 1.89028,-1.05921 0.18972,-0.35297 0.2092,-0.55347 0.23773,-2.44649 0.0218,-1.44661 -0.005,-2.19047 -0.0894,-2.49244 -0.21046,-0.75169 -1.02867,-1.35693 -1.8344,-1.35693 -0.30645,0 -0.57947,-0.31343 -0.79541,-0.91314 -0.745,-2.06904 -2.45583,-4.45258 -4.20856,-5.8634102 -1.60091,-1.28862 -3.30692,-2.15225 -5.26244,-2.66401 -1.44878,-0.37914 -3.63258,-0.47552 -5.18899,-0.22901 -1.98058,0.31369 -4.24209,1.27912 -5.88544,2.51247 -2.07933,1.5605702 -4.02492,4.1739902 -4.74004,6.3671002 -0.18454,0.56595 -0.42659,0.78897 -0.8597,0.79211 -0.69993,0.005 -1.61471,0.72559 -1.73374,1.36554 -0.0322,0.17295 -0.0451,1.31278 -0.0288,2.53295 l 0.0297,2.2185 0.27547,0.36089 c 0.36246,0.47486 0.77133,0.71392 1.35386,0.79158 0.84247,0.1123 1.16329,0.69882 0.68577,1.25372 -0.21049,0.24458 -0.2838,0.26748 -0.78762,0.24598 -1.12011,-0.0478 -2.25933,-0.83399 -2.79805,-1.93102 l -0.26734,-0.54439 -0.0301,-2.42979 c -0.0337,-2.72158 0.023,-3.10192 0.5821,-3.91254 0.37593,-0.54498 0.89552,-0.93699 1.64647,-1.2422 0.54482,-0.22143 0.56372,-0.24185 0.86524,-0.93468 0.16954,-0.38957 0.53131,-1.08699 0.80393,-1.54982 3.7047,-6.2895102 11.023,-9.0753602 17.71837,-6.7448602 3.41519,1.18875 6.45588,3.7501 8.23622,6.9378402 0.25826,0.46242 0.59498,1.13273 0.74826,1.48958 0.15327,0.35685 0.31069,0.64881 0.34981,0.64881 0.0391,0 0.30855,0.0888 0.59874,0.19741 0.69236,0.25904 1.38733,0.89551 1.74188,1.59526 l 0.28489,0.56227 v 2.73942 c 0,2.71633 -0.002,2.74347 -0.23659,3.22002 -0.34269,0.69615 -1.10175,1.41998 -1.73718,1.65657 l -0.52534,0.1956 -0.0564,0.57669 c -0.0937,0.95741 -0.65446,1.70926 -1.55565,2.0858 -0.25967,0.1085 -0.70794,0.14715 -1.70637,0.14715 h -1.35415 l -0.7555,0.793 -0.7555,0.79298 1.04927,1.06659 c 0.91675,0.93189 1.04927,1.10754 1.04927,1.39081 0,0.29822 -0.29083,0.61582 -3.62853,3.96243 -1.99569,2.00103 -3.74964,3.7023 -3.89766,3.78061 -0.15315,0.081 -0.36026,0.11535 -0.4806,0.0797 -0.11631,-0.0345 -0.65482,-0.50092 -1.19669,-1.03653 l -0.98524,-0.97384 -0.98523,0.97781 c -0.54187,0.5378 -1.09336,1.00295 -1.22553,1.03367 -0.15258,0.0354 -0.34555,-0.0112 -0.52865,-0.12778 z m 0.8916,-2.15357 0.40298,-0.4106 -3.00454,-3.0034 -3.00454,-3.0034 -0.42792,0.43602 -0.42791,0.43601 2.97682,2.97799 c 1.63725,1.63789 3.00052,2.97798 3.02948,2.97798 0.029,0 0.234,-0.18477 0.45563,-0.4106 z m 7.27825,-2.56877 2.97822,-2.97938 -0.456,-0.45599 -0.45598,-0.45599 -2.97938,2.97822 c -1.63865,1.63801 -2.97938,3.0199 -2.97938,3.07086 0,0.12689 0.68752,0.82165 0.81308,0.82165 0.0557,0 1.44142,-1.34072 3.07944,-2.97937 z m -3.0267,-0.92615 c 1.29481,-1.30218 2.2677,-2.33584 2.16196,-2.29701 -1.77187,0.65069 -2.84306,0.84945 -4.5657,0.8472 -1.53093,-0.002 -2.83945,-0.216 -4.00618,-0.65516 -0.34675,-0.13052 -0.65742,-0.2373 -0.69037,-0.2373 -0.033,0 0.99915,1.05972 2.29356,2.35493 1.2944,1.29522 2.37575,2.35494 2.40299,2.35494 0.0273,0 1.10892,-1.06542 2.40374,-2.3676 z m -0.23773,-3.14557 c 1.01864,-0.22077 2.21929,-0.68463 3.10037,-1.19781 0.81752,-0.47617 2.13486,-1.49872 2.13486,-1.65715 0,-0.0524 -0.60277,-0.0904 -1.43532,-0.0904 -1.36612,0 -1.43836,0.01 -1.49834,0.19855 -0.1005,0.31662 -0.61875,0.85196 -1.04621,1.0807 -0.35485,0.18988 -0.53551,0.2106 -1.83539,0.2106 -1.22238,0 -1.49299,-0.0273 -1.77822,-0.17917 -1.4118,-0.75196 -1.73445,-2.42388 -0.68589,-3.55427 0.55439,-0.59767 0.87814,-0.68807 2.46411,-0.68807 1.29988,0 1.48054,0.0207 1.83539,0.21061 0.42746,0.22873 0.94571,0.76407 1.04621,1.08069 0.0612,0.19269 0.12513,0.19856 2.16689,0.19856 h 2.10386 l 0.38638,-0.65036 c 0.2125,-0.3577 0.50059,-0.93082 0.64018,-1.27359 0.32059,-0.78721 0.73874,-2.41678 0.6415,-2.49999 -0.0404,-0.0346 -0.22488,-0.12092 -0.40991,-0.19185 -1.58378,-0.60714 -2.90351,-2.33039 -3.84892,-5.02575 -0.14477,-0.41275 -0.28528,-0.7725 -0.31224,-0.79946 -0.027,-0.027 -0.25876,0.0571 -0.51513,0.18686 -0.68267,0.34545 -1.98332,0.78658 -2.91719,0.98942 -1.00092,0.2174 -3.66587,0.2482 -4.56569,0.0528 -0.97899,-0.21261 -2.09733,-0.57344 -2.87314,-0.92699 -0.40811,-0.18598 -0.75749,-0.33815 -0.77641,-0.33815 -0.0189,0 -0.12767,0.29197 -0.24166,0.64881 -0.278,0.87029 -1.0434,2.46564 -1.51628,3.16044 -0.66189,0.97253 -1.81461,1.92586 -2.54644,2.10598 -0.34076,0.0839 -0.34414,0.32031 -0.0208,1.45123 1.15109,4.0256 4.494,6.97025 8.65568,7.62447 0.77906,0.12246 2.82617,0.0514 3.64772,-0.12667 z m 0.77002,-3.18132 c 0.12977,-0.12976 0.23593,-0.34799 0.23593,-0.48497 0,-0.13697 -0.10616,-0.3552 -0.23593,-0.48496 -0.22335,-0.22336 -0.29532,-0.23593 -1.35005,-0.23593 -1.05473,0 -1.12669,0.0126 -1.35005,0.23593 -0.12975,0.12976 -0.23593,0.34799 -0.23593,0.48496 0,0.13698 0.10618,0.35521 0.23593,0.48497 0.22336,0.22336 0.29532,0.23594 1.35005,0.23594 1.05473,0 1.1267,-0.0126 1.35005,-0.23594 z m -12.96944,-7.46054 c 1.08423,-0.67008 2.36555,-3.01931 2.91469,-5.34386 0.0645,-0.27318 0.20253,-0.57379 0.30667,-0.66804 0.2555,-0.23122 0.75414,-0.21611 1.10466,0.0335 0.88477,0.63001 2.56886,1.291 3.86967,1.51881 2.4127,0.42255 4.93582,-0.0229 7.13875,-1.26029 0.51017,-0.28656 0.99436,-0.52102 1.07599,-0.52102 0.33867,0 0.63842,0.4251 0.82723,1.17318 0.44713,1.77155 1.3833,3.67484 2.21819,4.50973 0.45275,0.45275 1.02633,0.81748 1.12711,0.7167 0.0301,-0.0301 0.005,-0.45495 -0.0551,-0.94426 -0.31734,-2.57414 -1.36505,-4.69907 -3.17291,-6.43521 -2.04982,-1.96851 -4.48723,-2.96106 -7.27152,-2.96106 -1.78417,0 -3.22531,0.33394 -4.75991,1.10298 -2.73166,1.36892 -4.78358,3.93629 -5.52137,6.90837 -0.19633,0.79092 -0.33773,2.36961 -0.21223,2.36961 0.0484,0 0.23287,-0.0896 0.41006,-0.19912 z"
       id="path1528" /></g></svg>
