<?xml version="1.0" encoding="UTF-8" standalone="no"?>
<!-- Created with Inkscape (http://www.inkscape.org/) -->

<svg
   width="39.687504mm"
   height="39.707233mm"
   viewBox="0 0 39.687504 39.707233"
   version="1.1"
   id="svg5"
   xml:space="preserve"
   sodipodi:docname="report.svg"
   inkscape:version="1.2.1 (9c6d41e410, 2022-07-14)"
   xmlns:inkscape="http://www.inkscape.org/namespaces/inkscape"
   xmlns:sodipodi="http://sodipodi.sourceforge.net/DTD/sodipodi-0.dtd"
   xmlns="http://www.w3.org/2000/svg"
   xmlns:svg="http://www.w3.org/2000/svg"><sodipodi:namedview
     id="namedview7"
     pagecolor="#ffffff"
     bordercolor="#000000"
     borderopacity="0.25"
     inkscape:showpageshadow="2"
     inkscape:pageopacity="0.0"
     inkscape:pagecheckerboard="0"
     inkscape:deskcolor="#d1d1d1"
     inkscape:document-units="mm"
     showgrid="false"
     inkscape:zoom="0.74564394"
     inkscape:cx="85.831852"
     inkscape:cy="429.15926"
     inkscape:window-width="1920"
     inkscape:window-height="1017"
     inkscape:window-x="1912"
     inkscape:window-y="-8"
     inkscape:window-maximized="1"
     inkscape:current-layer="layer1" /><defs
     id="defs2" /><g
     inkscape:label="Capa 1"
     inkscape:groupmode="layer"
     id="layer1"
     transform="translate(-69.907708,-7.4434543)"><path
       style="fill:#000000;stroke-width:0.168175"
       d="m 71.967473,46.809127 c -1.32655,-0.60212 -2.05946,-1.74686 -2.05946,-3.21668 0,-1.70454 -0.21473,-1.46826 10.7437,-11.8212 5.6068,-5.29702 10.48606,-9.95569 10.8428,-10.35262 1.33949,-1.49035 1.89274,-3.11909 2.27482,-6.69689 0.36216,-3.39132 2.41891,-5.9742296 5.51989,-6.9320196 1.596787,-0.4932 4.110007,-0.45105 4.310827,0.0723 0.0441,0.11489 -0.85882,1.16367 -2.00647,2.3306296 -1.632487,1.65995 -2.086637,2.22071 -2.086637,2.57648 0,0.35603 0.44681,0.9067 2.058357,2.53679 2.03302,2.05642 2.54128,2.40842 3.05913,2.11861 0.14561,-0.0815 1.16395,-1.03531 2.26296,-2.11961 2.47659,-2.44342 2.70259,-2.43859 2.7078,0.0578 0.01,4.66395 -3.64366,8.05706 -8.68309,8.06446 -1.120387,0.002 -2.926477,0.56018 -4.097837,1.26727 -1.10223,0.66535 -2.44885,2.0354 -13.07762,13.3052 -6.37657,6.76114 -8.25624,8.65878 -8.7873,8.87127 -0.90152,0.36071 -2.10599,0.33574 -2.98187,-0.0618 z m 2.63085,-1.94836 c 0.97116,-0.81719 0.79776,-2.27201 -0.34101,-2.86089 -1.48984,-0.77043 -3.08826,0.94614 -2.26467,2.43207 0.50882,0.91801 1.77638,1.12662 2.60568,0.42882 z m 27.170877,1.96387 c -0.49321,-0.22403 -2.207867,-1.92728 -6.222497,-6.18108 -3.04793,-3.22952 -5.6847,-6.0389 -5.85949,-6.24308 l -0.3178,-0.37122 2.14428,-2.27413 2.14427,-2.27412 1.00074,0.9265 c 0.5504,0.50958 3.41028,3.19824 6.355297,5.97482 5.73781,5.40965 5.89634,5.60316 5.88898,7.18861 -0.0121,2.59586 -2.75492,4.33424 -5.13378,3.2537 z m -15.154287,-1.10833 c -0.27109,-0.18988 -0.38119,-0.50447 -0.47141,-1.34694 -0.0648,-0.60457 -0.22866,-1.21015 -0.36425,-1.34574 -0.29567,-0.29568 -1.78709,-0.75945 -2.44225,-0.75945 -0.37078,0 -0.61326,0.19167 -1.16203,0.91849 -0.38141,0.50518 -0.82924,0.96159 -0.99517,1.01426 -0.30039,0.0953 -1.18124,-0.21022 -1.18124,-0.40976 0,-0.0576 0.84819,-1.01038 1.88485,-2.11724 1.03668,-1.10686 2.1151,-2.25863 2.39651,-2.5595 l 0.51165,-0.54703 1.26131,0.26944 c 1.44469,0.3086 3.80253,0.23887 5.06156,-0.14969 l 0.77307,-0.23859 2.33818,2.50773 c 1.28599,1.37924 2.36192,2.57478 2.39095,2.65673 0.061,0.17237 -0.84054,0.67327 -1.21182,0.67327 -0.13793,0 -0.60019,-0.45408 -1.02724,-1.00906 -0.878,-1.14103 -1.03465,-1.18443 -2.64472,-0.73266 -1.13665,0.31892 -1.2706,0.49934 -1.41804,1.90996 -0.0803,0.76816 -0.19444,1.0858 -0.45609,1.26907 -0.48004,0.33623 -2.76239,0.33392 -3.24382,-0.003 z m -13.83765,-9.14999 c -0.19063,-0.37368 -0.34661,-0.79635 -0.34661,-0.93926 0,-0.14292 0.4183,-0.58109 0.92956,-0.97371 0.51125,-0.39263 0.97499,-0.88996 1.03052,-1.10516 0.14441,-0.55965 -0.42339,-2.52758 -0.78513,-2.72118 -0.16428,-0.0879 -0.7347,-0.2111 -1.26759,-0.27374 -1.40603,-0.16525 -1.58911,-0.41151 -1.58911,-2.13752 0,-1.69857 0.13932,-1.87334 1.62728,-2.04122 1.20604,-0.13607 1.45985,-0.34954 1.81756,-1.52875 0.43575,-1.43645 0.37386,-1.64253 -0.75404,-2.51042 -0.55497,-0.42705 -1.00905,-0.89515 -1.00905,-1.04023 0,-0.38319 1.34062,-2.75244 1.61758,-2.85873 0.45207,-0.17347 1.42174,0.13596 1.99024,0.6351 0.3154,0.27693 1.18771,1.17634 1.93846,1.99869 l 1.365,1.49518 -0.52402,1.03808 c -1.15551,2.28905 -1.46461,5.02493 -0.84251,7.45727 l 0.33129,1.29536 -1.71874,1.64182 c -0.94532,0.90299 -2.11145,2.00317 -2.59141,2.44482 l -0.87266,0.80301 z m 28.053757,-1.94586 -2.605907,-2.45636 0.29487,-1.13042 c 0.42697,-1.63684 0.37849,-4.04233 -0.11297,-5.60585 -0.11153,-0.35483 1.4923,-0.8221 2.821727,-0.8221 0.92209,0 0.94708,0.0126 1.13048,0.56828 0.27754,0.84097 0.66607,1.09966 1.83512,1.22185 1.35687,0.14182 1.5351,0.38307 1.5351,2.07791 0,1.69484 -0.17823,1.93609 -1.5351,2.07791 -1.25538,0.13121 -1.58039,0.38792 -1.91417,1.51189 -0.43535,1.46595 -0.37203,1.67872 0.75846,2.54861 0.55498,0.42705 1.00588,0.90446 1.00201,1.06093 -0.004,0.15647 -0.1413,0.53631 -0.30538,0.8441 l -0.29833,0.55963 z m -21.034587,-13.3362 c -2.53864,-2.65928 -5.10203,-5.35573 -5.69643,-5.9921 -0.5944,-0.63638 -1.47004,-1.37695 -1.94585,-1.64572 -0.62633,-0.35379 -1.05412,-0.77626 -1.54985,-1.5306 l -0.68472,-1.04193 0.43466,-0.45368 0.43466,-0.45369 1.12543,0.74836 c 0.83033,0.55213 1.21864,0.94021 1.4809,1.48002 0.25839,0.53184 2.03665,2.33129 6.51121,6.58878 l 6.15573,5.85713 -0.71939,0.63207 c -0.39566,0.34764 -0.76692,0.6353 -0.82503,0.63924 -0.0581,0.004 -2.18269,-2.1686 -4.72132,-4.82788 z m 0.69701,-3.35545 c -1.76778,-1.69676 -2.40111,-2.62244 -2.31271,-3.38029 0.0418,-0.35845 0.29875,-0.58594 1.3133,-1.16278 0.69373,-0.39443 1.392,-0.7179 1.55172,-0.71881 0.15971,-6.4e-4 0.60204,0.39564 0.98295,0.88125 0.90204,1.14999 1.11818,1.24053 2.29033,0.95933 1.35583,-0.32525 1.70702,-0.69316 1.83883,-1.92635 0.157,-1.46876 0.32492,-1.59767 2.08131,-1.59767 1.75532,0 1.9233,0.12796 2.09753,1.59767 0.14285,1.20505 0.4095,1.54655 1.40286,1.79668 l 0.74775,0.18829 -0.0908,1.44606 c -0.0499,0.79534 -0.17568,1.67766 -0.27946,1.96072 l -0.1887,0.51464 -1.12986,-0.29473 c -2.31588,-0.6041 -5.18219,-0.27484 -7.41375,0.85165 -0.56219,0.28379 -1.06024,0.51599 -1.10678,0.51599 -0.0465,0 -0.84959,-0.73425 -1.78456,-1.63165 z"
       id="path1610" /></g></svg>
