<?xml version="1.0" encoding="UTF-8" standalone="no"?>
<!-- Created with Inkscape (http://www.inkscape.org/) -->

<svg
   width="39.687473mm"
   height="37.513439mm"
   viewBox="0 0 39.687473 37.513439"
   version="1.1"
   id="svg5"
   xml:space="preserve"
   inkscape:version="1.2.1 (9c6d41e410, 2022-07-14)"
   sodipodi:docname="status.svg"
   xmlns:inkscape="http://www.inkscape.org/namespaces/inkscape"
   xmlns:sodipodi="http://sodipodi.sourceforge.net/DTD/sodipodi-0.dtd"
   xmlns="http://www.w3.org/2000/svg"
   xmlns:svg="http://www.w3.org/2000/svg"><sodipodi:namedview
     id="namedview7"
     pagecolor="#ffffff"
     bordercolor="#000000"
     borderopacity="0.25"
     inkscape:showpageshadow="2"
     inkscape:pageopacity="0.0"
     inkscape:pagecheckerboard="0"
     inkscape:deskcolor="#d1d1d1"
     inkscape:document-units="mm"
     showgrid="false"
     inkscape:zoom="0.74564394"
     inkscape:cx="350.03302"
     inkscape:cy="457.32283"
     inkscape:window-width="1920"
     inkscape:window-height="1017"
     inkscape:window-x="1912"
     inkscape:window-y="-8"
     inkscape:window-maximized="1"
     inkscape:current-layer="layer1" /><defs
     id="defs2" /><g
     inkscape:label="Capa 1"
     inkscape:groupmode="layer"
     id="layer1"
     transform="translate(-5.2986025,-5.0123303)"><path
       style="fill:#000000;stroke-width:0.0544064"
       d="m 14.268965,41.600835 v -0.924912 h 2.420065 2.420061 l 0.02928,-0.122417 c 0.04727,-0.19768 0.559602,-2.896405 0.551476,-2.904931 -0.004,-0.0043 -2.93313,-0.02892 -6.509008,-0.05478 l -6.5015999,-0.047 -0.2720322,-0.134347 C 6.0285846,37.225458 5.6951394,36.872381 5.4917795,36.443119 L 5.3190738,36.078554 5.3028596,26.203739 c -0.011887,-7.229895 4.107e-4,-9.961764 0.045863,-10.199442 0.034133,-0.178545 0.1194436,-0.437863 0.1895756,-0.576264 0.1752187,-0.345771 0.6636171,-0.779187 1.034342,-0.917892 0.3001995,-0.11232 0.3287122,-0.112654 9.5921368,-0.112654 h 9.291042 l 0.16008,0.391162 0.160083,0.391163 -0.152946,0.306991 c -0.181207,0.363715 -0.164661,0.492684 0.103408,0.805858 0.102057,0.119229 0.185554,0.231179 0.185554,0.248777 0,0.0176 -4.082541,0.03819 -9.072315,0.04576 l -9.0723194,0.01376 -0.013767,7.977548 -0.013767,7.977549 5.5088614,0.03404 c 3.029869,0.01873 10.191102,0.04037 15.913852,0.04811 l 10.404986,0.01407 0.01389,-4.842861 0.01389,-4.842864 0.439904,-0.02868 c 0.586199,-0.03822 0.684836,-0.108331 0.850151,-0.60428 0.129709,-0.389124 0.133179,-0.393323 0.400352,-0.484137 0.148231,-0.05038 0.373617,-0.144722 0.500871,-0.209641 l 0.231362,-0.118033 -0.01438,7.332803 -0.01438,7.3328 -0.118564,0.256648 c -0.155116,0.335765 -0.577918,0.783392 -0.886881,0.938963 -0.135251,0.06809 -0.375645,0.151347 -0.534218,0.184992 -0.203932,0.04327 -2.120661,0.06118 -6.548753,0.06118 h -6.260426 l 0.02942,0.149619 c 0.01616,0.08229 0.147222,0.767815 0.291218,1.523387 l 0.261823,1.37377 h 2.408257 2.40826 v 0.924913 0.924914 h -9.38521 -9.385155 z m 9.779361,-5.796388 c 0.2698,-0.112727 0.391131,-0.228728 0.509997,-0.487585 0.432064,-0.940901 -0.733662,-1.837647 -1.506614,-1.158986 -0.254266,0.223247 -0.349703,0.420504 -0.349703,0.722778 0,0.734374 0.681122,1.201732 1.34632,0.923793 z M 38.781021,22.38317 c -0.01272,-0.03823 -0.07359,-0.244151 -0.135295,-0.457602 l -0.112193,-0.388094 -0.25802,-0.06392 c -0.141908,-0.03515 -0.461468,-0.161836 -0.710127,-0.281521 l -0.452116,-0.217606 -0.407309,0.223546 -0.407319,0.223547 -0.545887,-0.545892 -0.545896,-0.545891 0.224579,-0.406836 0.224578,-0.406837 -0.217078,-0.451034 C 35.319533,18.816963 35.193202,18.498349 35.158191,18.357 l -0.06366,-0.257001 -0.45191,-0.137841 -0.451905,-0.13784 -0.01806,-0.390505 c -0.0099,-0.214779 -0.0059,-0.5631 0.0091,-0.774047 l 0.02719,-0.383542 0.440254,-0.129839 0.440254,-0.129841 0.06786,-0.26477 c 0.03732,-0.145625 0.16418,-0.463943 0.281906,-0.707379 l 0.214036,-0.442607 -0.216795,-0.395009 -0.216789,-0.395009 0.255477,-0.292872 c 0.140517,-0.16108 0.38835,-0.408778 0.550751,-0.550442 l 0.295265,-0.257569 0.402091,0.216884 0.402087,0.216886 0.367898,-0.18527 c 0.202341,-0.101897 0.500989,-0.227521 0.663665,-0.279164 0.162675,-0.05164 0.31964,-0.115445 0.348808,-0.141787 0.02915,-0.02634 0.10509,-0.224786 0.168714,-0.44099 l 0.115677,-0.393099 0.415622,-0.04724 c 0.235002,-0.02671 0.573857,-0.02671 0.779775,0 l 0.364151,0.04724 0.139648,0.429791 0.139643,0.42979 0.380847,0.126792 c 0.209466,0.06973 0.522391,0.200942 0.695382,0.291572 l 0.314543,0.164781 0.399014,-0.218993 0.399019,-0.218994 0.302913,0.249378 c 0.166606,0.137158 0.414837,0.38532 0.551617,0.551472 l 0.248703,0.302094 -0.217371,0.393786 -0.21738,0.393784 0.171106,0.342407 c 0.09411,0.188325 0.224888,0.503971 0.290628,0.701438 l 0.119527,0.359032 0.429792,0.139751 0.429791,0.139752 0.03982,0.322705 c 0.05068,0.410778 -0.0062,1.222517 -0.08741,1.248967 -0.03365,0.01096 -0.233991,0.06985 -0.44517,0.130879 l -0.383951,0.11096 -0.06975,0.27216 c -0.03837,0.149687 -0.164556,0.468206 -0.280432,0.70782 l -0.210681,0.435659 0.22193,0.411443 0.221934,0.411445 -0.546534,0.540831 -0.546538,0.540833 -0.403792,-0.217805 -0.403795,-0.217804 -0.457046,0.213937 c -0.251377,0.117666 -0.572376,0.242883 -0.713339,0.278263 -0.250914,0.06297 -0.258104,0.07076 -0.342811,0.371243 -0.183518,0.651007 -0.06579,0.576883 -0.943477,0.594054 -0.588883,0.01152 -0.777444,-0.0015 -0.795074,-0.05441 z m 1.638521,-2.76961 c 0.683936,-0.210238 1.27708,-0.7409 1.603747,-1.434808 0.785118,-1.667754 -0.368348,-3.644744 -2.225342,-3.814135 -2.269059,-0.206977 -3.767662,2.451724 -2.408646,4.273222 0.724917,0.971606 1.857379,1.336254 3.030241,0.975721 z M 29.082417,17.623653 c -0.09665,-0.01867 -0.143582,-0.0986 -0.23176,-0.394687 -0.102958,-0.345706 -0.122856,-0.373573 -0.289085,-0.404758 -0.09819,-0.01841 -0.361136,-0.121465 -0.584343,-0.228991 l -0.405822,-0.1955 -0.333691,0.179015 -0.333686,0.179013 -0.276725,-0.231688 c -0.284567,-0.238249 -0.606492,-0.609047 -0.606492,-0.698562 0,-0.02779 0.07211,-0.183648 0.160236,-0.346359 l 0.160234,-0.295841 -0.156234,-0.323249 c -0.08592,-0.177788 -0.196,-0.44968 -0.244603,-0.604205 l -0.08837,-0.280952 -0.346976,-0.09392 c -0.190835,-0.05165 -0.360975,-0.130407 -0.37809,-0.174999 -0.04152,-0.108207 -0.03995,-1.07394 0.0017,-1.183064 0.01814,-0.04734 0.05724,-0.08606 0.08684,-0.08606 0.02959,0 0.18458,-0.03801 0.344402,-0.08447 0.281066,-0.08171 0.293626,-0.09374 0.383194,-0.367246 0.05093,-0.155523 0.162929,-0.423412 0.248881,-0.595309 l 0.156282,-0.312542 -0.16385,-0.290332 c -0.09012,-0.159682 -0.163856,-0.326422 -0.163856,-0.370531 0,-0.05964 0.539917,-0.6429801 0.84203,-0.9097607 0.01211,-0.010693 0.16247,0.056639 0.33414,0.1496183 0.355682,0.1926429 0.411309,0.2008688 0.585688,0.086612 0.06921,-0.045344 0.317927,-0.1524834 0.552731,-0.2380874 l 0.426907,-0.1556421 0.09584,-0.3398555 c 0.0527,-0.18692 0.103029,-0.3466775 0.111836,-0.3550168 0.02216,-0.020987 0.604314,-0.040243 0.979409,-0.032398 l 0.310533,0.00649 0.111707,0.3750971 c 0.09638,0.323626 0.132161,0.3801048 0.260738,0.4115863 0.08197,0.020068 0.352274,0.1233272 0.600688,0.2294621 l 0.451662,0.1929734 0.327466,-0.1745398 c 0.180109,-0.095997 0.337102,-0.1660633 0.348881,-0.155704 0.296529,0.260873 0.841427,0.8496301 0.841427,0.9091571 0,0.04411 -0.07374,0.210851 -0.163851,0.370532 l -0.16385,0.290333 0.159275,0.315518 c 0.0876,0.173533 0.199776,0.439358 0.249284,0.59072 0.08869,0.271148 0.09497,0.276677 0.426233,0.375254 0.184917,0.05503 0.354205,0.125712 0.376188,0.157075 0.02198,0.03136 0.04034,0.319355 0.04083,0.639981 8.61e-4,0.658348 0.01714,0.632719 -0.47277,0.747654 -0.279314,0.06553 -0.284309,0.0703 -0.365573,0.349848 -0.04531,0.155879 -0.155268,0.427888 -0.244337,0.604466 l -0.161937,0.321051 0.183768,0.326087 0.183762,0.326088 -0.220347,0.263178 c -0.121183,0.144747 -0.329599,0.352705 -0.463137,0.462127 l -0.242786,0.19895 -0.326863,-0.179692 -0.32686,-0.179692 -0.416845,0.195492 c -0.229264,0.10752 -0.496287,0.211333 -0.593376,0.230692 -0.163095,0.03252 -0.184847,0.06315 -0.285931,0.402567 -0.09982,0.335193 -0.124268,0.370335 -0.279125,0.401307 -0.182941,0.03659 -0.814108,0.03391 -1.011808,-0.0043 z m 1.525253,-2.48118 c 1.390011,-0.686981 1.689708,-2.515432 0.592195,-3.612947 -1.090431,-1.09043 -2.956931,-0.769798 -3.612895,0.620635 -0.599932,1.27166 0.03504,2.70304 1.399009,3.153604 0.134281,0.04435 0.407979,0.06604 0.714645,0.05662 0.447994,-0.01376 0.537462,-0.03525 0.907046,-0.217916 z m 5.786343,-3.560533 c -0.01368,-0.02244 -0.05314,-0.146119 -0.08767,-0.274835 -0.03514,-0.131029 -0.103421,-0.247539 -0.155133,-0.26472 -0.05079,-0.01689 -0.248668,-0.101562 -0.439712,-0.188186 l -0.347356,-0.157497 -0.247676,0.138428 -0.247675,0.138428 -0.316283,-0.312983 c -0.173956,-0.17214 -0.316282,-0.347582 -0.316282,-0.389873 0,-0.0423 0.05221,-0.161366 0.116016,-0.264611 L 34.46826,9.8183707 34.354073,9.564415 C 34.291271,9.4247401 34.205256,9.2226475 34.162934,9.1153223 34.098666,8.9523381 34.045373,8.9088145 33.839518,8.8511779 33.567036,8.7748879 33.530426,8.7100697 33.530426,8.3039353 c 0,-0.4092545 0.03797,-0.475954 0.325412,-0.5714232 0.203861,-0.067711 0.26909,-0.1185597 0.297551,-0.2319502 0.02006,-0.079875 0.09702,-0.2732528 0.171035,-0.4297273 L 34.459015,6.7863354 34.347622,6.5679826 c -0.06127,-0.1200947 -0.111396,-0.2429598 -0.111396,-0.2730344 0,-0.075382 0.306269,-0.4175403 0.49234,-0.5500331 l 0.153174,-0.109072 0.244861,0.1189633 0.244865,0.1189639 0.316489,-0.1394587 c 0.17407,-0.076702 0.367377,-0.1545487 0.429572,-0.1729923 0.07569,-0.022446 0.139544,-0.1187491 0.193121,-0.2912612 l 0.08004,-0.2577278 h 0.485147 0.485142 l 0.07216,0.2555068 c 0.05118,0.181218 0.107079,0.2659026 0.192241,0.2912616 0.06605,0.019666 0.262501,0.09851 0.43657,0.1752129 l 0.316492,0.1394587 0.246915,-0.1199622 0.246916,-0.1199623 0.183116,0.1396686 c 0.100711,0.076817 0.249809,0.2271051 0.331322,0.3339727 l 0.148196,0.1943047 -0.128272,0.2418008 -0.128275,0.2418009 0.142304,0.3104159 c 0.07827,0.1707285 0.15685,0.3639153 0.17462,0.4293038 0.0225,0.082801 0.113246,0.1457743 0.298971,0.2074614 0.255486,0.084859 0.268187,0.098696 0.302866,0.3299669 0.01988,0.1327666 0.02001,0.3494078 0,0.4814245 -0.03504,0.2337355 -0.04287,0.2416788 -0.297888,0.302858 -0.242702,0.058224 -0.266875,0.079503 -0.329887,0.2904343 -0.03741,0.1251844 -0.116655,0.3231879 -0.176129,0.4400074 l -0.108128,0.2123989 0.124693,0.2662184 0.124688,0.266218 -0.326103,0.326105 -0.326112,0.326107 -0.248913,-0.139122 -0.248917,-0.139123 -0.346788,0.16406 c -0.190734,0.09023 -0.38516,0.164076 -0.432063,0.1641 -0.05565,2.8e-5 -0.118054,0.104017 -0.179603,0.299279 l -0.09433,0.299236 h -0.456468 c -0.251054,0 -0.467669,-0.01836 -0.481366,-0.04081 z M 37.599697,9.7691983 C 38.588727,9.274975 38.842845,8.0242518 38.11802,7.2180779 37.741632,6.7994401 37.413474,6.6495336 36.874952,6.650218 c -0.513646,6.556e-4 -0.82524,0.1250672 -1.165569,0.465398 -0.351031,0.3510337 -0.466856,0.646806 -0.465327,1.1883193 8.62e-4,0.3931093 0.02281,0.5032504 0.144762,0.7344908 0.42942,0.8143015 1.401037,1.1354539 2.210879,0.7307722 z"
       id="path1596" /></g></svg>
